<svg width="36" height="35" viewBox="0 0 36 35" fill="none" xmlns="http://www.w3.org/2000/svg">
<path d="M31.1539 0C25.2889 0 17.4191 4.02378 12.1343 10.9416H7.75332C4.58764 10.9416 2.77325 13.3045 1.52399 15.8032L0.575243 17.7006C0.242765 18.3655 0.726259 19.1478 1.46966 19.1478H3.79984H6.09647C7.15733 19.1478 8.17475 19.5693 8.9249 20.3194L11.8564 23.2509L14.788 26.1825C15.5381 26.9326 15.9595 27.95 15.9595 29.0109V31.3075L15.9595 33.6378C15.9595 34.3812 16.7418 34.8647 17.4067 34.5323L19.3041 33.5836C21.8029 32.3341 24.1657 30.5197 24.1657 27.354V22.973C31.0836 17.6882 35.1074 9.81846 35.1074 3.95348V2C35.1074 0.895432 34.2119 0 33.1074 0L31.1539 0ZM7.79983 23.9115C7.01878 23.1305 5.75246 23.1305 4.97141 23.9115L3.95726 24.9257C2.30456 26.5784 2.245 30.9943 2.26967 32.3934C2.27405 32.6423 2.4642 32.8404 2.71279 32.853C4.08157 32.9224 8.35241 32.9794 10.1817 31.1501L11.1958 30.1359C11.9769 29.3549 11.9769 28.0886 11.1958 27.3075L7.79983 23.9115Z" fill="#E76500"/>
<path d="M28.5724 9.1104C28.5724 7.59964 27.3477 6.375 25.837 6.375C24.3262 6.375 23.1016 7.59964 23.1016 9.1104C23.1016 10.6212 24.3262 11.8458 25.837 11.8458C27.3477 11.8458 28.5724 10.6212 28.5724 9.1104Z" fill="#FFF8D6"/>
</svg>
