<svg width="1099" height="503" viewBox="0 0 1099 503" fill="none" xmlns="http://www.w3.org/2000/svg">
<path d="M924.818 421.391C923.003 421.285 921.168 421.009 919.353 420.245C921.168 419.482 923.003 419.206 924.818 419.1C924.918 416.83 925.177 414.56 926.035 412.269C926.892 414.539 927.172 416.809 927.251 419.079C929.067 419.185 930.902 419.439 932.717 420.224C930.902 421.009 929.067 421.285 927.251 421.37C927.172 423.64 926.892 425.91 926.035 428.18C925.177 425.91 924.898 423.64 924.818 421.349V421.391Z" fill="#EBF8FF"/>
<path d="M512.696 212.806C511.38 212.721 510.083 212.509 508.767 211.893C510.083 211.278 511.38 211.045 512.696 210.981C512.756 209.157 512.955 207.332 513.574 205.486C514.192 207.311 514.392 209.135 514.451 210.96C515.768 211.045 517.064 211.257 518.381 211.893C517.064 212.509 515.768 212.742 514.451 212.827C514.392 214.651 514.192 216.476 513.574 218.321C512.955 216.497 512.756 214.672 512.696 212.827V212.806Z" fill="#EBF8FF"/>
<path d="M180.131 339.841C178.734 339.756 177.358 339.523 175.962 338.865C177.358 338.207 178.734 337.974 180.131 337.889C180.191 335.959 180.41 334.028 181.048 332.076C181.687 334.007 181.906 335.937 181.966 337.889C183.362 337.974 184.738 338.207 186.135 338.865C184.738 339.523 183.362 339.756 181.966 339.841C181.906 341.771 181.687 343.702 181.028 345.654C180.37 343.723 180.171 341.793 180.091 339.841H180.131Z" fill="#EBF8FF"/>
<path d="M756.045 159.449C754.649 159.364 753.272 159.131 751.876 158.473C753.272 157.816 754.649 157.582 756.045 157.497C756.105 155.567 756.324 153.636 756.962 151.685C757.601 153.615 757.82 155.546 757.88 157.497C759.276 157.582 760.653 157.816 762.049 158.473C760.653 159.131 759.276 159.364 757.88 159.449C757.82 161.38 757.601 163.31 756.942 165.262C756.284 163.332 756.085 161.401 756.005 159.449H756.045Z" fill="#EBF8FF"/>
<path d="M578.439 269.068C576.125 268.919 573.811 268.537 571.478 267.434C573.791 266.331 576.105 265.949 578.439 265.8C578.559 262.555 578.898 259.33 579.995 256.084C581.072 259.309 581.431 262.555 581.551 265.779C583.864 265.907 586.178 266.31 588.512 267.413C586.198 268.516 583.884 268.919 581.551 269.046C581.431 272.271 581.092 275.517 579.995 278.742C578.898 275.496 578.559 272.271 578.439 269.025V269.068Z" fill="#EBF8FF"/>
<path d="M964.353 500.439C964.353 501.478 965.15 502.327 966.128 502.327C967.105 502.327 967.903 501.478 967.903 500.439C967.903 499.399 967.105 498.551 966.128 498.551C965.15 498.551 964.353 499.399 964.353 500.439Z" fill="#EBF8FF"/>
<path d="M713.782 189.829C713.782 190.932 714.62 191.823 715.657 191.823C716.694 191.823 717.532 190.932 717.532 189.829C717.532 188.726 716.694 187.835 715.657 187.835C714.62 187.835 713.782 188.726 713.782 189.829Z" fill="#EBF8FF"/>
<path d="M458.907 237.054C458.907 238.094 459.705 238.942 460.682 238.942C461.66 238.942 462.458 238.094 462.458 237.054C462.458 236.015 461.66 235.166 460.682 235.166C459.705 235.166 458.907 236.015 458.907 237.054Z" fill="#EBF8FF"/>
<path d="M607.884 177.291C607.884 178.331 608.682 179.18 609.659 179.18C610.636 179.18 611.434 178.331 611.434 177.291C611.434 176.252 610.636 175.403 609.659 175.403C608.682 175.403 607.884 176.252 607.884 177.291Z" fill="#EBF8FF"/>
<path d="M988.543 486.478C986.928 486.372 985.312 486.097 983.696 485.333C985.312 484.569 986.928 484.293 988.563 484.187C988.643 481.917 988.882 479.668 989.64 477.398C990.398 479.647 990.638 481.917 990.717 484.166C992.333 484.272 993.949 484.527 995.584 485.312C993.969 486.075 992.353 486.351 990.737 486.457C990.658 488.706 990.418 490.976 989.66 493.225C988.902 490.955 988.663 488.706 988.583 486.436L988.543 486.478Z" fill="#EBF8FF"/>
<path d="M124.478 159.619C122.843 159.512 121.207 159.237 119.571 158.473C121.207 157.688 122.843 157.412 124.478 157.327C124.558 155.057 124.797 152.766 125.575 150.496C126.333 152.766 126.593 155.057 126.672 157.327C128.308 157.433 129.944 157.709 131.579 158.473C129.944 159.258 128.308 159.534 126.672 159.619C126.593 161.889 126.353 164.18 125.575 166.45C124.797 164.18 124.558 161.889 124.478 159.619Z" fill="#EBF8FF"/>
<path d="M272.946 247.683C275.314 247.683 277.234 245.641 277.234 243.122C277.234 240.603 275.314 238.561 272.946 238.561C270.577 238.561 268.657 240.603 268.657 243.122C268.657 245.641 270.577 247.683 272.946 247.683Z" fill="#EBF8FF"/>
<path d="M939.051 7.21201C940.42 6.90611 941.806 6.74907 943.315 6.99606C942.129 8.01867 940.858 8.62621 939.531 9.09593C939.949 10.976 940.212 12.9004 940.076 14.9616C938.985 13.2754 938.298 11.4729 937.76 9.60562C936.391 9.91152 935.006 10.0685 933.496 9.82154C934.682 8.79893 935.953 8.19143 937.28 7.72171C936.863 5.84164 936.6 3.91725 936.755 1.85051C937.865 3.53112 938.532 5.33917 939.09 7.20093L939.051 7.21201Z" fill="#EBF8FF"/>
<path d="M1037.11 165.709C1038.71 165.357 1040.36 165.169 1042.12 165.452C1040.74 166.664 1039.23 167.384 1037.67 167.921C1038.15 170.134 1038.48 172.412 1038.29 174.819C1037 172.838 1036.19 170.699 1035.55 168.53C1033.95 168.882 1032.3 169.07 1030.53 168.787C1031.92 167.575 1033.43 166.855 1034.99 166.318C1034.51 164.105 1034.17 161.827 1034.37 159.42C1035.68 161.395 1036.47 163.54 1037.11 165.709Z" fill="#EBF8FF"/>
<path d="M872.141 121.941C869.855 122.598 868.504 125.103 869.123 127.534C869.743 129.966 872.099 131.404 874.385 130.746C876.671 130.088 878.022 127.584 877.402 125.152C876.783 122.721 874.427 121.283 872.141 121.941Z" fill="#EBF8FF"/>
<path d="M1026.82 101.784C1027.76 101.574 1028.71 101.466 1029.75 101.636C1028.94 102.339 1028.06 102.756 1027.15 103.079C1027.44 104.371 1027.62 105.693 1027.53 107.109C1026.78 105.951 1026.3 104.712 1025.93 103.429C1024.99 103.639 1024.04 103.747 1023 103.577C1023.82 102.875 1024.69 102.457 1025.6 102.134C1025.32 100.843 1025.14 99.5202 1025.24 98.1C1026.01 99.2549 1026.47 100.497 1026.85 101.777L1026.82 101.784Z" fill="#EBF8FF"/>
<path d="M1094.2 210.697C1095.31 210.456 1096.44 210.326 1097.65 210.521C1096.7 211.354 1095.66 211.849 1094.59 212.217C1094.92 213.738 1095.15 215.303 1095.02 216.957C1094.13 215.596 1093.57 214.126 1093.14 212.636C1092.03 212.878 1090.9 213.007 1089.69 212.813C1090.64 211.98 1091.68 211.485 1092.75 211.116C1092.42 209.595 1092.19 208.03 1092.32 206.376C1093.22 207.733 1093.77 209.207 1094.2 210.697Z" fill="#EBF8FF"/>
<path d="M980.849 180.621C979.278 181.073 978.349 182.794 978.775 184.465C979.201 186.136 980.82 187.124 982.391 186.672C983.962 186.22 984.89 184.499 984.464 182.828C984.038 181.157 982.42 180.169 980.849 180.621Z" fill="#EBF8FF"/>
<path d="M643.907 151.727C646.275 151.727 648.195 149.685 648.195 147.166C648.195 144.647 646.275 142.604 643.907 142.604C641.538 142.604 639.618 144.647 639.618 147.166C639.618 149.685 641.538 151.727 643.907 151.727Z" fill="#EBF8FF"/>
<path d="M956.056 343.659C956.056 344.762 956.893 345.653 957.931 345.653C958.968 345.653 959.806 344.762 959.806 343.659C959.806 342.556 958.968 341.665 957.931 341.665C956.893 341.665 956.056 342.556 956.056 343.659Z" fill="#EBF8FF"/>
<path d="M476.579 141.629C476.579 142.732 477.417 143.623 478.454 143.623C479.491 143.623 480.329 142.732 480.329 141.629C480.329 140.526 479.491 139.635 478.454 139.635C477.417 139.635 476.579 140.526 476.579 141.629Z" fill="#EBF8FF"/>
<path d="M92.1063 166.771C93.7112 166.42 95.3578 166.231 97.1244 166.514C95.7388 167.726 94.2279 168.447 92.67 168.983C93.1515 171.196 93.4841 173.474 93.2917 175.881C92.0017 173.901 91.1877 171.761 90.5522 169.592C88.9473 169.944 87.3007 170.132 85.5341 169.85C86.9197 168.638 88.4306 167.917 89.9885 167.381C89.507 165.168 89.1744 162.89 89.3668 160.482C90.6761 162.457 91.4708 164.603 92.1063 166.771Z" fill="#EBF8FF"/>
<path d="M81.8295 102.847C82.7699 102.637 83.7222 102.529 84.7595 102.698C83.9446 103.401 83.0712 103.819 82.1594 104.141C82.4461 105.433 82.627 106.756 82.5336 108.172C81.7838 107.013 81.3119 105.775 80.9423 104.492C80.0018 104.702 79.0495 104.81 78.0122 104.64C78.8271 103.937 79.7006 103.52 80.6123 103.197C80.3256 101.905 80.1448 100.583 80.2514 99.1625C81.0144 100.317 81.4731 101.56 81.8559 102.839L81.8295 102.847Z" fill="#EBF8FF"/>
<path d="M35.8487 181.684C34.2777 182.136 33.3495 183.857 33.7753 185.528C34.2012 187.199 35.8199 188.187 37.3909 187.735C38.9618 187.282 39.8901 185.562 39.4642 183.891C39.0384 182.22 37.4196 181.232 35.8487 181.684Z" fill="#EBF8FF"/>
<path d="M491.133 251.115C489.816 251.03 488.52 250.818 487.203 250.203C488.52 249.588 489.816 249.354 491.133 249.291C491.192 247.466 491.392 245.642 492.01 243.796C492.629 245.62 492.828 247.445 492.888 249.269C494.204 249.354 495.501 249.566 496.817 250.203C495.501 250.818 494.204 251.051 492.888 251.136C492.828 252.961 492.629 254.785 492.01 256.631C491.392 254.807 491.192 252.982 491.133 251.136V251.115Z" fill="#89D1FF"/>
<path d="M734.481 197.759C733.085 197.674 731.709 197.441 730.312 196.783C731.709 196.125 733.085 195.892 734.481 195.807C734.541 193.876 734.761 191.946 735.399 189.994C736.037 191.925 736.257 193.855 736.316 195.807C737.713 195.892 739.089 196.125 740.485 196.783C739.089 197.441 737.713 197.674 736.316 197.759C736.257 199.689 736.037 201.62 735.379 203.572C734.721 201.641 734.521 199.711 734.441 197.759H734.481Z" fill="#89D1FF"/>
<path d="M502.961 309.678C500.648 309.529 498.334 309.147 496 308.044C498.314 306.941 500.628 306.559 502.961 306.411C503.081 303.165 503.42 299.94 504.517 296.694C505.594 299.919 505.953 303.165 506.073 306.389C508.387 306.517 510.701 306.92 513.034 308.023C510.721 309.126 508.407 309.529 506.073 309.656C505.953 312.881 505.614 316.127 504.517 319.352C503.42 316.106 503.081 312.881 502.961 309.635V309.678Z" fill="#89D1FF"/>
<path d="M692.211 228.139C692.211 229.242 693.049 230.133 694.086 230.133C695.123 230.133 695.961 229.242 695.961 228.139C695.961 227.036 695.123 226.145 694.086 226.145C693.049 226.145 692.211 227.036 692.211 228.139Z" fill="#89D1FF"/>
<path d="M437.328 275.364C437.328 276.403 438.126 277.252 439.103 277.252C440.081 277.252 440.879 276.403 440.879 275.364C440.879 274.324 440.081 273.476 439.103 273.476C438.126 273.476 437.328 274.324 437.328 275.364Z" fill="#89D1FF"/>
<path d="M586.312 215.601C586.312 216.641 587.11 217.489 588.088 217.489C589.065 217.489 589.863 216.641 589.863 215.601C589.863 214.561 589.065 213.713 588.088 213.713C587.11 213.713 586.312 214.561 586.312 215.601Z" fill="#89D1FF"/>
<path d="M102.907 197.928C101.271 197.822 99.6356 197.546 98 196.783C99.6356 195.998 101.271 195.722 102.907 195.637C102.987 193.367 103.226 191.076 104.004 188.806C104.762 191.076 105.021 193.367 105.101 195.637C106.737 195.743 108.372 196.019 110.008 196.783C108.372 197.567 106.737 197.843 105.101 197.928C105.021 200.198 104.782 202.489 104.004 204.759C103.226 202.489 102.987 200.198 102.907 197.928Z" fill="#89D1FF"/>
<path d="M917.48 45.5216C918.848 45.2157 920.234 45.0586 921.744 45.3056C920.558 46.3282 919.287 46.9358 917.96 47.4055C918.377 49.2856 918.64 51.2099 918.505 53.2711C917.413 51.585 916.727 49.7825 916.189 47.9152C914.82 48.2211 913.434 48.3781 911.925 48.1311C913.111 47.1085 914.382 46.501 915.709 46.0313C915.291 44.1512 915.028 42.2268 915.183 40.1601C916.294 41.8407 916.961 43.6487 917.518 45.5105L917.48 45.5216Z" fill="#89D1FF"/>
<path d="M1015.54 204.019C1017.14 203.667 1018.79 203.479 1020.55 203.761C1019.17 204.973 1017.66 205.694 1016.1 206.23C1016.58 208.443 1016.91 210.721 1016.72 213.129C1015.43 211.148 1014.62 209.008 1013.98 206.84C1012.38 207.191 1010.73 207.38 1008.96 207.097C1010.35 205.885 1011.86 205.164 1013.42 204.628C1012.94 202.415 1012.6 200.137 1012.8 197.73C1014.1 199.705 1014.9 201.85 1015.54 204.019Z" fill="#89D1FF"/>
<path d="M850.569 160.25C848.283 160.908 846.932 163.412 847.552 165.844C848.172 168.275 850.528 169.713 852.814 169.055C855.1 168.398 856.451 165.893 855.831 163.462C855.211 161.03 852.856 159.592 850.569 160.25Z" fill="#89D1FF"/>
<path d="M1005.25 140.094C1006.19 139.884 1007.14 139.776 1008.18 139.945C1007.37 140.648 1006.49 141.066 1005.58 141.388C1005.87 142.68 1006.05 144.003 1005.95 145.419C1005.2 144.26 1004.73 143.022 1004.36 141.739C1003.42 141.949 1002.47 142.057 1001.43 141.887C1002.25 141.184 1003.12 140.767 1004.03 140.444C1003.75 139.152 1003.57 137.83 1003.67 136.41C1004.44 137.564 1004.89 138.807 1005.28 140.086L1005.25 140.094Z" fill="#89D1FF"/>
<path d="M1072.63 249.007C1073.74 248.765 1074.87 248.636 1076.08 248.83C1075.13 249.663 1074.09 250.158 1073.02 250.527C1073.35 252.048 1073.58 253.613 1073.45 255.267C1072.56 253.906 1072 252.436 1071.56 250.945C1070.46 251.187 1069.33 251.316 1068.12 251.122C1069.07 250.289 1070.11 249.794 1071.18 249.426C1070.85 247.905 1070.62 246.339 1070.75 244.685C1071.65 246.043 1072.2 247.517 1072.63 249.007Z" fill="#89D1FF"/>
<path d="M959.277 218.931C957.706 219.383 956.778 221.104 957.204 222.775C957.63 224.446 959.249 225.434 960.82 224.982C962.391 224.53 963.319 222.809 962.893 221.138C962.467 219.467 960.848 218.479 959.277 218.931Z" fill="#89D1FF"/>
<path d="M622.335 190.037C624.704 190.037 626.624 187.994 626.624 185.475C626.624 182.956 624.704 180.914 622.335 180.914C619.967 180.914 618.047 182.956 618.047 185.475C618.047 187.994 619.967 190.037 622.335 190.037Z" fill="#89D1FF"/>
<path d="M934.484 381.969C934.484 383.072 935.322 383.963 936.359 383.963C937.397 383.963 938.234 383.072 938.234 381.969C938.234 380.866 937.397 379.975 936.359 379.975C935.322 379.975 934.484 380.866 934.484 381.969Z" fill="#89D1FF"/>
<path d="M455.008 179.939C455.008 181.042 455.846 181.933 456.883 181.933C457.92 181.933 458.758 181.042 458.758 179.939C458.758 178.835 457.92 177.944 456.883 177.944C455.846 177.944 455.008 178.835 455.008 179.939Z" fill="#89D1FF"/>
<path d="M48.8285 183.035C49.7689 182.825 50.7213 182.717 51.7585 182.887C50.9436 183.59 50.0702 184.007 49.1585 184.33C49.4451 185.622 49.626 186.944 49.5326 188.36C48.7829 187.202 48.311 185.963 47.9413 184.68C47.0009 184.89 46.0485 184.998 45.0112 184.828C45.8262 184.126 46.6996 183.708 47.6113 183.385C47.3247 182.094 47.1438 180.771 47.2504 179.351C48.0134 180.506 48.4721 181.748 48.855 183.028L48.8285 183.035Z" fill="#89D1FF"/>
<path d="M2.8477 201.33C1.27675 201.782 0.348483 203.503 0.774355 205.174C1.20023 206.845 2.81897 207.833 4.38992 207.381C5.96087 206.929 6.88914 205.208 6.46327 203.537C6.03739 201.866 4.41865 200.878 2.8477 201.33Z" fill="#89D1FF"/>
</svg>
