<svg width="40" height="40" viewBox="0 0 40 40" fill="none" xmlns="http://www.w3.org/2000/svg">
<g clip-path="url(#clip0_2963_22482)">
<path d="M29.5797 5.98535C29.8818 6.6176 30.1206 7.27794 30.2892 7.97341C30.4859 8.77425 30.8372 10.5094 31.5256 12.2094C32.488 14.619 35.4596 16.9934 37.9464 16.7054C38.0518 16.1504 38.108 15.5814 38.108 14.9913C38.108 10.1792 34.3286 6.24527 29.5797 5.98535Z" fill="#DF1278"/>
<path d="M31.5263 12.2164C30.8378 10.5163 30.4866 8.78117 30.2899 7.98033C30.1213 7.28486 29.8824 6.62452 29.5803 5.99227C29.5031 5.83773 29.4258 5.68318 29.3415 5.53565C29.2783 5.4092 29.201 5.28275 29.1308 5.16333C27.2691 2.06533 23.8269 0 19.907 0C19.3591 0 18.8181 0.0421496 18.2913 0.119424C18.221 0.133474 18.1508 0.140499 18.0875 0.154549C13.8023 0.962417 10.4304 4.36951 9.68572 8.66878C9.66464 8.77415 9.64357 8.87952 9.62952 8.9849C13.718 9.04812 17.1813 12.125 18.6987 17.2252C21.4103 23.1823 28.632 23.7724 30.5217 23.9059C34.259 23.3088 37.2305 20.4145 37.9471 16.7123C35.4602 17.0004 32.4887 14.6259 31.5263 12.2164Z" fill="#DF1278"/>
<path d="M33.1697 31.212C33.0854 29.5752 32.0035 28.1983 30.5213 27.6785V23.9061C28.6315 23.7726 21.4099 23.1615 18.6983 17.1973C17.1809 12.0972 13.7176 9.02026 9.62908 8.95703H9.36916C9.13734 8.97108 8.90552 8.98513 8.68072 9.00621C8.45592 9.03431 8.23112 9.06943 8.01335 9.11158C7.70425 9.1748 7.4092 9.25208 7.11415 9.35043C6.53109 9.54713 5.97611 9.81407 5.47032 10.1372C5.21742 10.2988 4.97155 10.4814 4.73973 10.6711C4.55005 10.8257 4.37443 10.9872 4.20583 11.1558C3.89673 11.4579 3.61574 11.7881 3.37689 12.1464C3.34176 12.1885 3.31366 12.2236 3.28556 12.2658C2.4777 13.467 2 14.9142 2 16.4737C2 17.2113 2.10537 17.9279 2.3091 18.6023C2.3372 18.7006 2.3653 18.7919 2.40042 18.8833C2.44257 19.0167 2.48472 19.1432 2.54092 19.2696C2.58307 19.375 2.63224 19.4874 2.68142 19.5928C2.72357 19.6982 2.77274 19.8035 2.82894 19.9019C2.88514 20.0073 2.94134 20.1056 2.99754 20.211C3.16614 20.5131 3.36284 20.8011 3.57359 21.068C3.64384 21.1594 3.72111 21.2437 3.79136 21.335C4.22691 21.8548 4.74675 22.3185 5.3228 22.7048C5.3228 22.7048 5.32514 22.7048 5.32982 22.7048C5.61784 22.9015 5.91289 23.0772 6.22901 23.2247C6.32736 23.2879 6.43274 23.3371 6.54514 23.3792C6.64348 23.4144 6.73481 23.4495 6.83316 23.4846C6.88233 23.5057 6.93853 23.5268 6.99473 23.5478C7.03688 23.5689 7.07903 23.583 7.12118 23.597C7.1844 23.6181 7.24763 23.6392 7.31788 23.6532C7.34598 23.6673 7.3811 23.6743 7.41623 23.6813C7.71128 23.7726 8.01335 23.8429 8.32244 23.885C8.49104 23.9202 8.65964 23.9412 8.83526 23.9553C9.06006 23.9764 9.29189 23.9904 9.52371 23.9904H9.58693V27.7277C8.03442 28.2616 6.92448 29.7368 6.92448 31.4649C6.92448 32.5538 7.36705 33.5443 8.0836 34.2538C8.44187 34.6121 8.87039 34.9001 9.34106 35.1039C9.81876 35.3006 10.3386 35.413 10.8795 35.42H11.0832C13.1697 35.3076 14.8346 33.5794 14.8346 31.4649V31.2612C14.7713 30.1302 14.2374 29.1256 13.4366 28.4442C13.2118 28.2545 12.973 28.093 12.7201 27.9595C12.5444 27.8682 12.3618 27.7909 12.1791 27.7277V23.9904H18.7545V32.315C17.209 32.8489 16.0991 34.3171 16.0991 36.0452C16.0991 38.23 17.8693 40.0002 20.0471 40.0002H20.2508C22.3442 39.8878 24.0021 38.1667 24.0021 36.0452V35.8415C23.9178 34.2047 22.8289 32.8278 21.3467 32.315V23.9904H27.922V27.6785C26.3765 28.2194 25.2666 29.6876 25.2666 31.4158C25.2666 32.5046 25.7092 33.4951 26.4257 34.2117C26.6084 34.3873 26.798 34.5559 27.0088 34.6964C27.641 35.1249 28.3997 35.3708 29.2216 35.3708H29.4254C31.5118 35.2584 33.1767 33.5303 33.1767 31.4158V31.212H33.1697ZM10.8795 32.7294C10.1841 32.7294 9.61503 32.1604 9.61503 31.4649C9.61503 30.7695 10.1841 30.1934 10.8795 30.1934C11.575 30.1934 12.151 30.7624 12.151 31.4649C12.151 32.1674 11.582 32.7294 10.8795 32.7294ZM20.0541 37.3167C19.3516 37.3167 18.7826 36.7477 18.7826 36.0452C18.7826 35.3427 19.3516 34.7807 20.0541 34.7807C20.7566 34.7807 21.3186 35.3497 21.3186 36.0452C21.3186 36.7407 20.7496 37.3167 20.0541 37.3167ZM29.2216 32.6873C28.5191 32.6873 27.9571 32.1183 27.9571 31.4158C27.9571 30.7133 28.5191 30.1513 29.2216 30.1513C29.9241 30.1513 30.4861 30.7133 30.4861 31.4158C30.4861 32.1183 29.9241 32.6873 29.2216 32.6873Z" fill="#DF1278"/>
</g>
<defs>
<clipPath id="clip0_2963_22482">
<rect width="40" height="40" rx="13.8861" fill="white"/>
</clipPath>
</defs>
</svg>
